<?xml version="1.0" encoding="UTF-8" standalone="no"?><svg xmlns="http://www.w3.org/2000/svg" xmlns:xlink="http://www.w3.org/1999/xlink" contentScriptType="application/ecmascript" contentStyleType="text/css" height="729px" preserveAspectRatio="none" style="width:294px;height:729px;" version="1.1" viewBox="0 0 294 729" width="294px" zoomAndPan="magnify"><defs/><g><line style="stroke: #383838; stroke-width: 1.0;" x1="55" x2="55" y1="34.2969" y2="248.2266"/><line style="stroke: #383838; stroke-width: 1.0; stroke-dasharray: 1.0,4.0;" x1="55" x2="55" y1="248.2266" y2="289.0313"/><line style="stroke: #383838; stroke-width: 1.0;" x1="55" x2="55" y1="289.0313" y2="522.0938"/><line style="stroke: #383838; stroke-width: 1.0; stroke-dasharray: 1.0,4.0;" x1="55" x2="55" y1="522.0938" y2="562.8984"/><line style="stroke: #383838; stroke-width: 1.0;" x1="55" x2="55" y1="562.8984" y2="689.4297"/><line style="stroke: #383838; stroke-width: 1.0;" x1="240" x2="240" y1="34.2969" y2="248.2266"/><line style="stroke: #383838; stroke-width: 1.0; stroke-dasharray: 1.0,4.0;" x1="240" x2="240" y1="248.2266" y2="289.0313"/><line style="stroke: #383838; stroke-width: 1.0;" x1="240" x2="240" y1="289.0313" y2="522.0938"/><line style="stroke: #383838; stroke-width: 1.0; stroke-dasharray: 1.0,4.0;" x1="240" x2="240" y1="522.0938" y2="562.8984"/><line style="stroke: #383838; stroke-width: 1.0;" x1="240" x2="240" y1="562.8984" y2="689.4297"/><rect fill="#EEEEEE" height="30.2969" style="stroke: #000000; stroke-width: 1.0;" width="94" x="8" y="3"/><text fill="#000000" font-family="sans-serif" font-size="14" lengthAdjust="spacingAndGlyphs" textLength="80" x="15" y="22.9951">Bootloader</text><rect fill="#EEEEEE" height="30.2969" style="stroke: #000000; stroke-width: 1.0;" width="94" x="8" y="688.4297"/><text fill="#000000" font-family="sans-serif" font-size="14" lengthAdjust="spacingAndGlyphs" textLength="80" x="15" y="708.4248">Bootloader</text><rect fill="#EEEEEE" height="30.2969" style="stroke: #000000; stroke-width: 1.0;" width="86" x="197" y="3"/><text fill="#000000" font-family="sans-serif" font-size="14" lengthAdjust="spacingAndGlyphs" textLength="72" x="204" y="22.9951">Flash-App</text><rect fill="#EEEEEE" height="30.2969" style="stroke: #000000; stroke-width: 1.0;" width="86" x="197" y="688.4297"/><text fill="#000000" font-family="sans-serif" font-size="14" lengthAdjust="spacingAndGlyphs" textLength="72" x="204" y="708.4248">Flash-App</text><polygon fill="#555555" points="228,61.4297,238,65.4297,228,69.4297,232,65.4297" style="stroke: #555555; stroke-width: 1.0;"/><line style="stroke: #555555; stroke-width: 1.0;" x1="55" x2="234" y1="65.4297" y2="65.4297"/><text fill="#000000" font-family="sans-serif" font-size="13" lengthAdjust="spacingAndGlyphs" textLength="103" x="62" y="60.3638">Bootloader start</text><polygon fill="#555555" points="66,90.5625,56,94.5625,66,98.5625,62,94.5625" style="stroke: #555555; stroke-width: 1.0;"/><line style="stroke: #555555; stroke-width: 1.0; stroke-dasharray: 2.0,2.0;" x1="60" x2="239" y1="94.5625" y2="94.5625"/><text fill="#000000" font-family="sans-serif" font-size="13" lengthAdjust="spacingAndGlyphs" textLength="56" x="72" y="89.4966">Flash init</text><polygon fill="#555555" points="228,119.6953,238,123.6953,228,127.6953,232,123.6953" style="stroke: #555555; stroke-width: 1.0;"/><line style="stroke: #555555; stroke-width: 1.0;" x1="55" x2="234" y1="123.6953" y2="123.6953"/><text fill="#000000" font-family="sans-serif" font-size="13" lengthAdjust="spacingAndGlyphs" textLength="136" x="62" y="118.6294">Flash ready (0x0000)</text><polygon fill="#555555" points="66,148.8281,56,152.8281,66,156.8281,62,152.8281" style="stroke: #555555; stroke-width: 1.0;"/><line style="stroke: #555555; stroke-width: 1.0; stroke-dasharray: 2.0,2.0;" x1="60" x2="239" y1="152.8281" y2="152.8281"/><text fill="#000000" font-family="sans-serif" font-size="13" lengthAdjust="spacingAndGlyphs" textLength="128" x="72" y="147.7622">Flash data (4 bytes)</text><polygon fill="#555555" points="228,177.9609,238,181.9609,228,185.9609,232,181.9609" style="stroke: #555555; stroke-width: 1.0;"/><line style="stroke: #555555; stroke-width: 1.0;" x1="55" x2="234" y1="181.9609" y2="181.9609"/><text fill="#000000" font-family="sans-serif" font-size="13" lengthAdjust="spacingAndGlyphs" textLength="136" x="62" y="176.895">Flash ready (0x0004)</text><polygon fill="#555555" points="66,207.0938,56,211.0938,66,215.0938,62,211.0938" style="stroke: #555555; stroke-width: 1.0;"/><line style="stroke: #555555; stroke-width: 1.0; stroke-dasharray: 2.0,2.0;" x1="60" x2="239" y1="211.0938" y2="211.0938"/><text fill="#000000" font-family="sans-serif" font-size="13" lengthAdjust="spacingAndGlyphs" textLength="128" x="72" y="206.0278">Flash data (4 bytes)</text><polygon fill="#555555" points="228,236.2266,238,240.2266,228,244.2266,232,240.2266" style="stroke: #555555; stroke-width: 1.0;"/><line style="stroke: #555555; stroke-width: 1.0;" x1="55" x2="234" y1="240.2266" y2="240.2266"/><text fill="#000000" font-family="sans-serif" font-size="13" lengthAdjust="spacingAndGlyphs" textLength="136" x="62" y="235.1606">Flash ready (0x0008)</text><text fill="#000000" font-family="sans-serif" font-size="11" lengthAdjust="spacingAndGlyphs" textLength="123" x="86" y="272.437">transmit all flash data</text><polygon fill="#555555" points="66,306.1641,56,310.1641,66,314.1641,62,310.1641" style="stroke: #555555; stroke-width: 1.0;"/><line style="stroke: #555555; stroke-width: 1.0; stroke-dasharray: 2.0,2.0;" x1="60" x2="239" y1="310.1641" y2="310.1641"/><text fill="#000000" font-family="sans-serif" font-size="13" lengthAdjust="spacingAndGlyphs" textLength="128" x="72" y="305.0981">Flash data (2 bytes)</text><polygon fill="#555555" points="228,335.2969,238,339.2969,228,343.2969,232,339.2969" style="stroke: #555555; stroke-width: 1.0;"/><line style="stroke: #555555; stroke-width: 1.0;" x1="55" x2="234" y1="339.2969" y2="339.2969"/><text fill="#000000" font-family="sans-serif" font-size="13" lengthAdjust="spacingAndGlyphs" textLength="135" x="62" y="334.231">Flash ready (0x1F42)</text><polygon fill="#555555" points="66,364.4297,56,368.4297,66,372.4297,62,368.4297" style="stroke: #555555; stroke-width: 1.0;"/><line style="stroke: #555555; stroke-width: 1.0; stroke-dasharray: 2.0,2.0;" x1="60" x2="239" y1="368.4297" y2="368.4297"/><text fill="#000000" font-family="sans-serif" font-size="13" lengthAdjust="spacingAndGlyphs" textLength="110" x="72" y="363.3638">Flash done verify</text><polygon fill="#555555" points="228,393.5625,238,397.5625,228,401.5625,232,397.5625" style="stroke: #555555; stroke-width: 1.0;"/><line style="stroke: #555555; stroke-width: 1.0;" x1="55" x2="234" y1="397.5625" y2="397.5625"/><text fill="#000000" font-family="sans-serif" font-size="13" lengthAdjust="spacingAndGlyphs" textLength="110" x="62" y="392.4966">Flash done verify</text><polygon fill="#555555" points="66,422.6953,56,426.6953,66,430.6953,62,426.6953" style="stroke: #555555; stroke-width: 1.0;"/><line style="stroke: #555555; stroke-width: 1.0; stroke-dasharray: 2.0,2.0;" x1="60" x2="239" y1="426.6953" y2="426.6953"/><text fill="#000000" font-family="sans-serif" font-size="13" lengthAdjust="spacingAndGlyphs" textLength="128" x="72" y="421.6294">Flash read (0x0000)</text><polygon fill="#555555" points="228,451.8281,238,455.8281,228,459.8281,232,455.8281" style="stroke: #555555; stroke-width: 1.0;"/><line style="stroke: #555555; stroke-width: 1.0;" x1="55" x2="234" y1="455.8281" y2="455.8281"/><text fill="#000000" font-family="sans-serif" font-size="13" lengthAdjust="spacingAndGlyphs" textLength="161" x="62" y="450.7622">Flash read data (4 bytes)</text><polygon fill="#555555" points="66,480.9609,56,484.9609,66,488.9609,62,484.9609" style="stroke: #555555; stroke-width: 1.0;"/><line style="stroke: #555555; stroke-width: 1.0; stroke-dasharray: 2.0,2.0;" x1="60" x2="239" y1="484.9609" y2="484.9609"/><text fill="#000000" font-family="sans-serif" font-size="13" lengthAdjust="spacingAndGlyphs" textLength="128" x="72" y="479.895">Flash read (0x0004)</text><polygon fill="#555555" points="228,510.0938,238,514.0938,228,518.0938,232,514.0938" style="stroke: #555555; stroke-width: 1.0;"/><line style="stroke: #555555; stroke-width: 1.0;" x1="55" x2="234" y1="514.0938" y2="514.0938"/><text fill="#000000" font-family="sans-serif" font-size="13" lengthAdjust="spacingAndGlyphs" textLength="161" x="62" y="509.0278">Flash read data (4 bytes)</text><text fill="#000000" font-family="sans-serif" font-size="11" lengthAdjust="spacingAndGlyphs" textLength="103" x="96" y="546.3042">read all flash data</text><polygon fill="#555555" points="66,580.0313,56,584.0313,66,588.0313,62,584.0313" style="stroke: #555555; stroke-width: 1.0;"/><line style="stroke: #555555; stroke-width: 1.0; stroke-dasharray: 2.0,2.0;" x1="60" x2="239" y1="584.0313" y2="584.0313"/><text fill="#000000" font-family="sans-serif" font-size="13" lengthAdjust="spacingAndGlyphs" textLength="127" x="72" y="578.9653">Flash read (0x1F40)</text><polygon fill="#555555" points="228,609.1641,238,613.1641,228,617.1641,232,613.1641" style="stroke: #555555; stroke-width: 1.0;"/><line style="stroke: #555555; stroke-width: 1.0;" x1="55" x2="234" y1="613.1641" y2="613.1641"/><text fill="#000000" font-family="sans-serif" font-size="13" lengthAdjust="spacingAndGlyphs" textLength="161" x="62" y="608.0981">Flash read data (4 bytes)</text><polygon fill="#555555" points="66,638.2969,56,642.2969,66,646.2969,62,642.2969" style="stroke: #555555; stroke-width: 1.0;"/><line style="stroke: #555555; stroke-width: 1.0; stroke-dasharray: 2.0,2.0;" x1="60" x2="239" y1="642.2969" y2="642.2969"/><text fill="#000000" font-family="sans-serif" font-size="13" lengthAdjust="spacingAndGlyphs" textLength="59" x="72" y="637.231">Start app</text><polygon fill="#555555" points="228,667.4297,238,671.4297,228,675.4297,232,671.4297" style="stroke: #555555; stroke-width: 1.0;"/><line style="stroke: #555555; stroke-width: 1.0;" x1="55" x2="234" y1="671.4297" y2="671.4297"/><text fill="#000000" font-family="sans-serif" font-size="13" lengthAdjust="spacingAndGlyphs" textLength="59" x="62" y="666.3638">Start app</text><!--MD5=[d478f9885eca3b7f561616e67049c154]
@startuml
skinparam {
  ArrowColor #555555
  ParticipantBorderColor #000000
  ParticipantBackgroundColor #eeeeee
  ParticipantBorderThickness 1
  LifeLineBorderColor #cccccc
  monochrome true
  shadowing false
}

Bootloader -> "Flash-App" : Bootloader start
Bootloader <- - "Flash-App" : Flash init
Bootloader -> "Flash-App" : Flash ready (0x0000)
Bootloader <- - "Flash-App" : Flash data (4 bytes)
Bootloader -> "Flash-App" : Flash ready (0x0004)
Bootloader <- - "Flash-App" : Flash data (4 bytes)
Bootloader -> "Flash-App" : Flash ready (0x0008)
... transmit all flash data ...
Bootloader <- - "Flash-App" : Flash data (2 bytes)
Bootloader -> "Flash-App" : Flash ready (0x1F42)
Bootloader <- - "Flash-App" : Flash done verify
Bootloader -> "Flash-App" : Flash done verify
Bootloader <- - "Flash-App" : Flash read (0x0000)
Bootloader -> "Flash-App" : Flash read data (4 bytes)
Bootloader <- - "Flash-App" : Flash read (0x0004)
Bootloader -> "Flash-App" : Flash read data (4 bytes)
... read all flash data ...
Bootloader <- - "Flash-App" : Flash read (0x1F40)
Bootloader -> "Flash-App" : Flash read data (4 bytes)
Bootloader <- - "Flash-App" : Start app
Bootloader -> "Flash-App" : Start app
@enduml

PlantUML version 1.2020.15beta1(Unknown compile time)
(GPL source distribution)
Java Runtime: Java(TM) SE Runtime Environment
JVM: Java HotSpot(TM) 64-Bit Server VM
Default Encoding: UTF-8
Language: en
Country: US
--></g></svg>